<mxfile host="app.diagrams.net" modified="2022-04-10T02:18:54.918Z" agent="5.0 (Macintosh; Intel Mac OS X 10_15_7) AppleWebKit/537.36 (KHTML, like Gecko) Chrome/100.0.4896.75 Safari/537.36" etag="rW9Eley2M08OeK1ykcnU" version="17.4.0" type="github">
  <diagram id="3228e29e-7158-1315-38df-8450db1d8a1d" name="Page-1">
    <mxGraphModel dx="1283" dy="3" grid="0" gridSize="10" guides="1" tooltips="1" connect="1" arrows="1" fold="1" page="1" pageScale="1" pageWidth="530" pageHeight="500" background="#EFF1F3" math="0" shadow="0">
      <root>
        <mxCell id="0" />
        <mxCell id="1" parent="0" />
        <mxCell id="OGBjxk_xHfaE1EplLFuK-23" value="begin;" style="rounded=0;whiteSpace=wrap;html=1;fillColor=#CCCCCC;gradientColor=none;fontSize=24;" parent="1" vertex="1">
          <mxGeometry x="151" y="1086" width="380" height="60" as="geometry" />
        </mxCell>
        <mxCell id="OGBjxk_xHfaE1EplLFuK-29" value="&lt;font color=&quot;#ffffff&quot; style=&quot;font-size: 24px;&quot;&gt;线程1&lt;/font&gt;" style="rounded=0;whiteSpace=wrap;html=1;fillColor=#535E80;gradientColor=none;fontSize=24;" parent="1" vertex="1">
          <mxGeometry x="151" y="1026" width="380" height="60" as="geometry" />
        </mxCell>
        <mxCell id="E5Fr-yn8FIVRKY9gDkfl-8" value="&lt;font color=&quot;#ffffff&quot; style=&quot;font-size: 24px;&quot;&gt;线程2&lt;/font&gt;" style="rounded=0;whiteSpace=wrap;html=1;fillColor=#535E80;gradientColor=none;fontSize=24;" parent="1" vertex="1">
          <mxGeometry x="531" y="1026" width="380" height="60" as="geometry" />
        </mxCell>
        <mxCell id="E5Fr-yn8FIVRKY9gDkfl-9" value="" style="rounded=0;whiteSpace=wrap;html=1;fillColor=#CCCCCC;gradientColor=none;fontSize=24;" parent="1" vertex="1">
          <mxGeometry x="531" y="1086" width="380" height="60" as="geometry" />
        </mxCell>
        <mxCell id="E5Fr-yn8FIVRKY9gDkfl-10" value="&lt;font style=&quot;font-size: 19px&quot;&gt;select user where phone_no &amp;gt;=1 for update; // 查到2条数据,phone_no=1和3&lt;/font&gt;" style="rounded=0;whiteSpace=wrap;html=1;fillColor=#F8F8F8;gradientColor=none;fontSize=24;" parent="1" vertex="1">
          <mxGeometry x="151" y="1146" width="380" height="60" as="geometry" />
        </mxCell>
        <mxCell id="E5Fr-yn8FIVRKY9gDkfl-11" value="" style="rounded=0;whiteSpace=wrap;html=1;fillColor=#F8F8F8;gradientColor=none;fontSize=24;" parent="1" vertex="1">
          <mxGeometry x="531" y="1146" width="380" height="60" as="geometry" />
        </mxCell>
        <mxCell id="E5Fr-yn8FIVRKY9gDkfl-12" value="" style="rounded=0;whiteSpace=wrap;html=1;fillColor=#CCCCCC;gradientColor=none;fontSize=24;" parent="1" vertex="1">
          <mxGeometry x="151" y="1206" width="380" height="60" as="geometry" />
        </mxCell>
        <mxCell id="E5Fr-yn8FIVRKY9gDkfl-13" value="&lt;font style=&quot;font-size: 20px&quot;&gt;insert phone_no=2; &lt;br&gt;// 写锁与间隙锁互斥，阻塞&lt;/font&gt;" style="rounded=0;whiteSpace=wrap;html=1;fillColor=#CCCCCC;gradientColor=none;fontSize=24;" parent="1" vertex="1">
          <mxGeometry x="531" y="1206" width="380" height="60" as="geometry" />
        </mxCell>
        <mxCell id="E5Fr-yn8FIVRKY9gDkfl-14" value="&lt;span style=&quot;font-size: 19px&quot;&gt;select user where phone_no &amp;gt;=1 for update; // 还是&lt;/span&gt;&lt;span style=&quot;font-size: 19px&quot;&gt;查到2条数据,phone_no=1和3&lt;/span&gt;" style="rounded=0;whiteSpace=wrap;html=1;fillColor=#F8F8F8;gradientColor=none;fontSize=24;" parent="1" vertex="1">
          <mxGeometry x="151" y="1266" width="380" height="60" as="geometry" />
        </mxCell>
        <mxCell id="E5Fr-yn8FIVRKY9gDkfl-15" value="" style="rounded=0;whiteSpace=wrap;html=1;fillColor=#F8F8F8;gradientColor=none;fontSize=24;" parent="1" vertex="1">
          <mxGeometry x="531" y="1266" width="380" height="60" as="geometry" />
        </mxCell>
        <mxCell id="E5Fr-yn8FIVRKY9gDkfl-16" value="commit;" style="rounded=0;whiteSpace=wrap;html=1;fillColor=#CCCCCC;gradientColor=none;fontSize=24;" parent="1" vertex="1">
          <mxGeometry x="151" y="1326" width="380" height="60" as="geometry" />
        </mxCell>
        <mxCell id="E5Fr-yn8FIVRKY9gDkfl-17" value="" style="rounded=0;whiteSpace=wrap;html=1;fillColor=#CCCCCC;gradientColor=none;fontSize=24;" parent="1" vertex="1">
          <mxGeometry x="531" y="1326" width="380" height="60" as="geometry" />
        </mxCell>
        <mxCell id="o99k7smHVPs2LoiXMWNT-3" value="&lt;font color=&quot;#ea6b66&quot; style=&quot;font-size: 16px&quot;&gt;ps: 以上sql都是伪代码&lt;/font&gt;" style="text;html=1;strokeColor=none;fillColor=none;align=left;verticalAlign=middle;whiteSpace=wrap;rounded=0;fontSize=20;" parent="1" vertex="1">
          <mxGeometry x="151" y="1453" width="211" height="21" as="geometry" />
        </mxCell>
        <mxCell id="0mS_TAKgqIc9bi3Gtoi1-1" value="" style="rounded=0;whiteSpace=wrap;html=1;fillColor=#F8F8F8;gradientColor=none;fontSize=24;" vertex="1" parent="1">
          <mxGeometry x="151" y="1386" width="380" height="60" as="geometry" />
        </mxCell>
        <mxCell id="0mS_TAKgqIc9bi3Gtoi1-2" value="&lt;font style=&quot;font-size: 20px&quot;&gt;阻塞返回, insert成功&lt;/font&gt;" style="rounded=0;whiteSpace=wrap;html=1;fillColor=#F8F8F8;gradientColor=none;fontSize=24;" vertex="1" parent="1">
          <mxGeometry x="531" y="1386" width="380" height="60" as="geometry" />
        </mxCell>
      </root>
    </mxGraphModel>
  </diagram>
</mxfile>
